<svg width="10" height="11" viewBox="0 0 10 11" fill="none" xmlns="http://www.w3.org/2000/svg">
<path fill-rule="evenodd" clip-rule="evenodd" d="M4.94911 0.361084L6.18132 1.23289L7.65231 1.22234L8.25454 2.67861L9.49727 3.53266L9.2783 5.11104L9.89821 6.55854L8.92757 7.7579L8.72785 9.33928L7.31371 9.77883L6.35777 10.992L4.94911 10.5322L3.54044 10.992L2.5845 9.77883L1.17036 9.33928L0.970641 7.7579L0 6.55854L0.619915 5.11104L0.400947 3.53266L1.64368 2.67861L2.2459 1.22234L3.71689 1.23289L4.94911 0.361084ZM6.25793 4.17913L4.28924 6.44716L3.64029 5.69954C3.48882 5.52505 3.23567 5.51682 3.07486 5.68117C2.91404 5.84552 2.90646 6.12021 3.05793 6.2947L3.99805 7.37778C4.15597 7.55971 4.4225 7.55971 4.58042 7.37778L6.84029 4.77429C6.99175 4.5998 6.98417 4.32511 6.82336 4.16076C6.66254 3.99641 6.40939 4.00463 6.25793 4.17913Z" fill="#3897F0"/>
</svg>
