<svg width="22" height="25" viewBox="0 0 22 25" fill="none" xmlns="http://www.w3.org/2000/svg">
<path fill-rule="evenodd" clip-rule="evenodd" d="M22 12.0791C22 5.48713 17.0751 0.143311 11 0.143311C4.92487 0.143311 0 5.48713 0 12.0791C0 18.671 4.92487 24.0148 11 24.0148C12.326 24.0148 14.1475 23.49 16.4645 22.4402L20.2113 24.0261L20.3223 24.0653C20.8067 24.203 21.3199 23.928 21.5063 23.4096C21.5808 23.2023 21.5948 22.9751 21.5464 22.7589L20.5016 18.0969L20.6727 17.6527C21.5576 15.314 22 13.4561 22 12.0791ZM19.2714 17.0708L18.9265 17.9568L19.862 22.1313L16.4454 20.6851L15.5123 21.105C13.5445 21.9666 12.0245 22.3872 11 22.3872C5.75329 22.3872 1.5 17.7721 1.5 12.0791C1.5 6.38603 5.75329 1.77091 11 1.77091C16.2467 1.77091 20.5 6.38603 20.5 12.0791C20.5 13.2135 20.097 14.8951 19.2714 17.0708Z" fill="#262626"/>
</svg>
